<?xml version="1.0" encoding="utf-8"?>
<svg xmlns="http://www.w3.org/2000/svg"
	xmlns:xlink="http://www.w3.org/1999/xlink"
	width="215px" height="142px" viewBox="0 0 215 142">
<style type="text/css"><![CDATA[
.style0 {
  font-size: 36px;
  font-family: "Aleo-Regular";
  fill: rgb(232,232,232);
}
]]></style>
<g><text transform="translate(107.00,135.00)" class="style0"><tspan x="-98.01 -78.35 -58.59 -38.83 -21.94 -14.31 7.47 15.10 32.81 52.79 61.54 81.05" fill="rgb(231,231,231)">Book &amp; Enjoy</tspan></text><circle cx="106.00" cy="48.00" r="48.00" fill="rgb(51,51,51)"/><path fillRule="evenodd" d="M 136.59 46.66C 136.59 47.31 136.49 47.92 136.3 48.48 136.12 49.05 135.83 49.56 135.46 50.03 135.09 50.5 134.66 50.87 134.2 51.16 133.73 51.44 133.21 51.67 132.65 51.86 132.93 52.33 133.16 52.82 133.35 53.34 133.54 53.85 133.63 54.44 133.63 55.09 133.63 55.66 133.54 56.22 133.35 56.78 133.16 57.34 132.93 57.86 132.65 58.33 132.27 58.7 131.85 59.06 131.38 59.38 130.91 59.71 130.44 59.97 129.98 60.16 130.26 60.63 130.49 61.14 130.68 61.7 130.87 62.27 130.96 62.83 130.96 63.39 130.96 64.05 130.87 64.63 130.68 65.15 130.49 65.66 130.26 66.16 129.98 66.62 129.6 67.1 129.18 67.49 128.71 67.82 128.24 68.15 127.73 68.36 127.16 68.45 127.54 68.92 127.82 69.42 128.01 69.93 128.19 70.45 128.29 71.03 128.29 71.69 128.29 72.34 128.15 73 127.87 73.66 127.59 74.31 127.21 74.88 126.74 75.34 126.18 75.81 125.57 76.19 124.91 76.47 124.26 76.75 123.55 76.89 122.8 76.89 122.8 76.89 104.24 76.89 104.24 76.89 103.59 76.89 102.84 76.8 101.99 76.61 101.15 76.42 100.26 76.14 99.32 75.77 98.38 75.48 97.44 75.13 96.51 74.71 95.57 74.29 94.63 73.89 93.7 73.52 92.57 73.05 91.47 72.58 90.39 72.11 89.31 71.64 88.54 71.41 88.07 71.41 88.07 71.41 75.27 71.41 75.27 71.41 75.27 71.41 75.27 43.98 75.27 43.98 75.27 43.98 76.4 43.84 76.4 43.84 81.74 43.84 85.4 43.84 87.37 43.84 88.21 43.84 88.98 43.75 89.69 43.56 90.39 43.38 91.12 43 91.87 42.44 92.71 41.97 93.67 41.31 94.75 40.47 95.83 39.62 97.12 38.59 98.62 37.37 101.52 34.94 103.23 31.89 103.75 28.23 104.26 24.58 104.52 22.47 104.52 21.91 104.52 21.34 104.66 20.81 104.95 20.29 105.23 19.77 105.6 19.37 106.07 19.09 106.54 18.72 107.03 18.46 107.55 18.32 108.06 18.18 108.55 18.11 109.02 18.11 109.77 18.11 110.52 18.2 111.27 18.39 112.02 18.58 112.73 19 113.38 19.66 114.04 20.31 114.55 21.18 114.93 22.26 115.3 23.34 115.49 24.77 115.49 26.55 115.49 28.14 115.37 29.66 115.14 31.12 114.91 32.57 114.6 33.95 114.23 35.27 113.95 36.58 113.59 37.77 113.17 38.85 112.75 39.93 112.4 40.84 112.12 41.59 112.12 41.59 131.24 41.59 131.24 41.59 132.09 41.59 132.81 41.71 133.42 41.95 134.03 42.18 134.62 42.53 135.18 43 135.65 43.47 136 44.01 136.23 44.62 136.47 45.23 136.59 45.91 136.59 46.66 136.59 46.66 136.59 46.66 136.59 46.66 136.59 46.66 136.59 46.66 136.59 46.66ZM 131.24 49.61C 131.71 49.61 132.13 49.54 132.51 49.4 132.88 49.26 133.16 49.05 133.35 48.77 133.63 48.48 133.87 48.18 134.05 47.85 134.24 47.52 134.34 47.13 134.34 46.66 134.34 45.91 134.05 45.25 133.49 44.69 132.93 44.12 132.18 43.84 131.24 43.84 131.24 43.84 122.8 43.84 122.8 43.84 122.8 43.94 122.8 43.94 122.8 43.84 122.8 43.84 108.32 43.84 108.32 43.84 108.32 43.84 109.16 42.16 109.16 42.16 111.79 35.69 113.1 30.48 113.1 26.55 113.1 23.45 112.59 21.65 111.55 21.13 110.52 20.62 109.68 20.36 109.02 20.36 108.74 20.36 108.32 20.5 107.76 20.78 107.2 21.06 106.91 21.44 106.91 21.91 106.91 22.47 106.87 23.41 106.77 24.72 106.68 26.03 106.4 27.53 105.93 29.22 105.46 30.91 104.78 32.64 103.89 34.42 103 36.2 101.76 37.75 100.16 39.06 98.57 40.38 97.23 41.48 96.16 42.37 95.08 43.26 94.07 43.98 93.13 44.55 92.19 45.11 91.26 45.53 90.32 45.81 89.38 46.09 88.4 46.23 87.37 46.23 86.62 46.23 85.8 46.23 84.91 46.23 84.01 46.23 83.1 46.23 82.16 46.23 81.32 46.23 80.5 46.23 79.7 46.23 78.91 46.23 78.23 46.23 77.66 46.23 77.66 46.23 77.66 69.02 77.66 69.02 77.66 69.02 88.07 69.02 88.07 69.02 88.72 69.02 89.59 69.23 90.67 69.65 91.75 70.07 93.08 70.61 94.68 71.27 95.43 71.64 96.25 72.04 97.14 72.46 98.03 72.88 98.9 73.23 99.74 73.52 100.68 73.8 101.52 74.06 102.27 74.29 103.02 74.52 103.68 74.64 104.24 74.64 104.24 74.64 119.85 74.64 119.85 74.64 119.85 74.64 122.8 74.64 122.8 74.64 123.27 74.64 123.69 74.55 124.07 74.36 124.44 74.17 124.77 73.94 125.05 73.66 125.34 73.47 125.55 73.19 125.69 72.81 125.83 72.44 125.9 72.06 125.9 71.69 125.9 71.22 125.83 70.82 125.69 70.49 125.55 70.16 125.34 69.86 125.05 69.58 124.77 69.3 124.44 69.09 124.07 68.95 123.69 68.8 123.27 68.73 122.8 68.73 122.8 68.73 122.52 68.73 122.52 68.73 122.52 68.73 122.52 66.34 122.52 66.34 122.52 66.34 125.76 66.34 125.76 66.34 126.13 66.34 126.51 66.27 126.88 66.13 127.26 65.99 127.59 65.78 127.87 65.5 128.05 65.22 128.24 64.89 128.43 64.52 128.62 64.14 128.71 63.77 128.71 63.39 128.71 63.02 128.62 62.64 128.43 62.27 128.24 61.89 128.05 61.56 127.87 61.28 127.59 61.09 127.26 60.91 126.88 60.72 126.51 60.53 126.13 60.44 125.76 60.44 125.76 60.44 124.77 60.44 124.77 60.44 124.77 60.44 124.77 58.05 124.77 58.05 124.77 58.05 128.29 58.05 128.29 58.05 128.66 58.05 129.04 57.98 129.41 57.84 129.79 57.7 130.12 57.48 130.4 57.2 130.68 56.92 130.91 56.59 131.1 56.22 131.29 55.85 131.38 55.47 131.38 55.09 131.38 54.63 131.29 54.2 131.1 53.83 130.91 53.45 130.68 53.17 130.4 52.98 130.12 52.7 129.79 52.47 129.41 52.28 129.04 52.09 128.66 52 128.29 52 128.29 52 127.16 52 127.16 52 127.16 52 127.16 49.61 127.16 49.61 127.16 49.61 131.24 49.61 131.24 49.61 131.24 49.61 131.24 49.61 131.24 49.61 131.24 49.61 131.24 49.61 131.24 49.61 131.24 49.61 131.24 49.61 131.24 49.61 131.24 49.61 131.24 49.61 131.24 49.61Z" fill="rgb(0,162,255)"/></g></svg>