<?xml version="1.0" encoding="utf-8"?>
<svg xmlns="http://www.w3.org/2000/svg"
	xmlns:xlink="http://www.w3.org/1999/xlink"
	width="200px" height="136px" viewBox="0 0 200 136">
<style type="text/css"><![CDATA[
.style0 {
  font-size: 36px;
  font-family: "Aleo-Regular";
  fill: rgb(232,232,232);
}
]]></style>
<g><text transform="translate(100.00,135.00)" class="style0"><tspan x="-95.85 -77.88 -59.85 -51.35 -33.32 -16.72 -4.81 2.83 21.80 30.29 47.65 63.56 81.59" fill="rgb(231,231,231)">Select Places</tspan></text><circle cx="99.00" cy="48.00" r="48.00" fill="rgb(51,51,51)"/><path fillRule="evenodd" d="M 99 17.55C 103.12 17.55 107.02 18.32 110.67 19.87 114.33 21.41 117.51 23.55 120.23 26.27 122.95 28.99 125.09 32.17 126.63 35.83 128.18 39.48 128.95 43.38 128.95 47.5 128.95 51.63 128.18 55.52 126.63 59.17 125.09 62.83 122.95 66.02 120.23 68.73 117.51 71.45 114.33 73.59 110.67 75.13 107.02 76.68 103.12 77.45 99 77.45 94.87 77.45 90.98 76.68 87.33 75.13 83.67 73.59 80.48 71.45 77.77 68.73 75.05 66.02 72.91 62.83 71.37 59.17 69.82 55.52 69.05 51.63 69.05 47.5 69.05 43.38 69.82 39.48 71.37 35.83 72.91 32.17 75.05 28.99 77.77 26.27 80.48 23.55 83.67 21.41 87.33 19.87 90.98 18.32 94.87 17.55 99 17.55 99 17.55 99 17.55 99 17.55ZM 99 75.06C 102.84 75.06 106.43 74.34 109.76 72.88 113.08 71.43 116.02 69.49 118.55 67.05 120.98 64.52 122.93 61.59 124.38 58.26 125.84 54.93 126.56 51.35 126.56 47.5 126.56 43.66 125.84 40.07 124.38 36.74 122.93 33.42 120.98 30.48 118.55 27.95 116.02 25.52 113.08 23.57 109.76 22.12 106.43 20.66 102.84 19.94 99 19.94 95.15 19.94 91.57 20.66 88.24 22.12 84.91 23.57 81.98 25.52 79.45 27.95 77.01 30.48 75.07 33.42 73.62 36.74 72.16 40.07 71.44 43.66 71.44 47.5 71.44 51.35 72.16 54.93 73.62 58.26 75.07 61.59 77.01 64.52 79.45 67.05 81.98 69.49 84.91 71.43 88.24 72.88 91.57 74.34 95.15 75.06 99 75.06 99 75.06 99 75.06 99 75.06ZM 114.05 36.81C 114.33 36.44 114.73 36.25 115.24 36.25 115.76 36.25 116.2 36.44 116.58 36.81 116.86 37.19 117 37.63 117 38.15 117 38.66 116.81 39.06 116.44 39.34 116.44 39.34 95.91 59.31 95.91 59.31 95.81 59.5 95.65 59.62 95.41 59.66 95.18 59.71 94.97 59.73 94.78 59.73 94.5 59.73 94.24 59.71 94.01 59.66 93.77 59.62 93.61 59.5 93.52 59.31 93.52 59.31 85.5 51.3 85.5 51.3 85.12 50.92 84.94 50.48 84.94 49.96 84.94 49.45 85.12 49.05 85.5 48.77 85.78 48.39 86.18 48.2 86.7 48.2 87.21 48.2 87.66 48.39 88.03 48.77 88.03 48.77 94.78 55.52 94.78 55.52 94.78 55.52 114.05 36.81 114.05 36.81 114.05 36.81 114.05 36.81 114.05 36.81Z" fill="rgb(255,98,99)"/></g></svg>