<?xml version="1.0" encoding="utf-8"?>
<svg xmlns="http://www.w3.org/2000/svg"
	xmlns:xlink="http://www.w3.org/1999/xlink"
	width="20px" height="20px" viewBox="0 0 20 20">
<path fillRule="evenodd" d="M 19.99 18.98C 19.99 18.98 18.95 20.03 18.95 20.03 18.95 20.03 13.18 14.24 13.18 14.24 12.85 14.54 12.49 14.81 12.09 15.04 11.69 15.27 11.28 15.47 10.85 15.64 10.41 15.81 9.96 15.93 9.48 16.01 9 16.1 8.52 16.14 8.06 16.14 6.93 16.14 5.88 15.92 4.9 15.49 3.93 15.06 3.07 14.48 2.34 13.74 1.61 13.01 1.04 12.16 0.63 11.18 0.21 10.2 0.01 9.16 0.01 8.06 0.01 6.93 0.21 5.88 0.63 4.89 1.04 3.91 1.61 3.06 2.34 2.33 3.07 1.6 3.93 1.02 4.9 0.61 5.88 0.19 6.93-0.02 8.06-0.02 9.15-0.02 10.19 0.19 11.17 0.61 12.15 1.02 13 1.6 13.73 2.33 14.46 3.06 15.04 3.91 15.47 4.89 15.9 5.88 16.11 6.93 16.11 8.06 16.11 8.53 16.07 9 15.99 9.48 15.91 9.96 15.78 10.42 15.62 10.85 15.45 11.29 15.25 11.7 15.02 12.1 14.79 12.5 14.52 12.86 14.23 13.2 14.23 13.2 19.99 18.98 19.99 18.98 19.99 18.98 19.99 18.98 19.99 18.98ZM 0.85 8.06C 0.85 9.06 1.03 9.99 1.4 10.85 1.76 11.72 2.28 12.48 2.94 13.15 3.6 13.81 4.37 14.33 5.25 14.72 6.13 15.1 7.07 15.29 8.06 15.29 9.06 15.29 9.98 15.1 10.85 14.72 11.71 14.33 12.47 13.81 13.13 13.15 13.79 12.48 14.32 11.72 14.7 10.85 15.08 9.99 15.27 9.06 15.27 8.06 15.27 7.06 15.08 6.13 14.7 5.24 14.32 4.36 13.79 3.59 13.13 2.93 12.47 2.26 11.71 1.75 10.85 1.38 9.98 1.01 9.06 0.83 8.06 0.83 7.07 0.83 6.13 1.01 5.25 1.38 4.37 1.75 3.6 2.26 2.94 2.93 2.28 3.59 1.76 4.36 1.4 5.24 1.03 6.13 0.85 7.06 0.85 8.06 0.85 8.06 0.85 8.06 0.85 8.06Z" fill="rgb(255,255,255)"/></svg>