<?xml version="1.0" encoding="utf-8"?>
<svg xmlns="http://www.w3.org/2000/svg"
	xmlns:xlink="http://www.w3.org/1999/xlink"
	width="214px" height="138px" viewBox="0 0 214 138">
<style type="text/css"><![CDATA[
.style0 {
  font-size: 36px;
  font-family: "Aleo-Regular";
  fill: rgb(232,232,232);
}
]]></style>
<text transform="translate(107.00,137.00)" class="style0"><tspan x="-100.76 -82.80 -64.76 -47.41 -36.00 -19.87 0.11 7.74 26.71 35.21 52.56 68.47 86.51" fill="rgb(231,231,231)">Search Places</tspan></text><circle cx="106.00" cy="48.00" r="48.00" fill="rgb(51,51,51)"/><path fillRule="evenodd" d="M 134.27 73.81C 134.27 73.81 131.31 76.77 131.31 76.77 131.31 76.77 115 60.45 115 60.45 114.06 61.3 113.03 62.05 111.91 62.7 110.78 63.36 109.61 63.92 108.39 64.39 107.17 64.86 105.88 65.21 104.52 65.45 103.16 65.68 101.83 65.8 100.52 65.8 97.33 65.8 94.35 65.19 91.59 63.97 88.82 62.75 86.4 61.11 84.34 59.05 82.28 56.99 80.66 54.57 79.49 51.8 78.32 49.04 77.73 46.11 77.73 43.02 77.73 39.83 78.32 36.85 79.49 34.09 80.66 31.32 82.28 28.91 84.34 26.84 86.4 24.78 88.82 23.17 91.59 21.99 94.35 20.82 97.33 20.23 100.52 20.23 103.61 20.23 106.54 20.82 109.3 21.99 112.07 23.17 114.48 24.78 116.55 26.84 118.61 28.91 120.25 31.32 121.47 34.09 122.69 36.85 123.3 39.83 123.3 43.02 123.3 44.33 123.18 45.67 122.95 47.02 122.71 48.38 122.36 49.67 121.89 50.89 121.42 52.11 120.86 53.28 120.2 54.41 119.55 55.53 118.8 56.56 117.95 57.5 117.95 57.5 134.27 73.81 134.27 73.81 134.27 73.81 134.27 73.81 134.27 73.81ZM 80.12 43.02C 80.12 45.83 80.64 48.45 81.67 50.89 82.7 53.33 84.15 55.48 86.03 57.36 87.91 59.24 90.09 60.71 92.57 61.79 95.05 62.87 97.7 63.41 100.52 63.41 103.33 63.41 105.95 62.87 108.39 61.79 110.83 60.71 112.98 59.24 114.86 57.36 116.73 55.48 118.21 53.33 119.29 50.89 120.37 48.45 120.91 45.83 120.91 43.02 120.91 40.2 120.37 37.56 119.29 35.07 118.21 32.59 116.73 30.41 114.86 28.53 112.98 26.66 110.83 25.2 108.39 24.17 105.95 23.14 103.33 22.62 100.52 22.62 97.7 22.62 95.05 23.14 92.57 24.17 90.09 25.2 87.91 26.66 86.03 28.53 84.15 30.41 82.7 32.59 81.67 35.07 80.64 37.56 80.12 40.2 80.12 43.02 80.12 43.02 80.12 43.02 80.12 43.02Z" fill="rgb(83,115,253)"/></svg>